<svg width="116" height="100" viewBox="0 0 116 100" fill="none" xmlns="http://www.w3.org/2000/svg">
<g id="Vector">
<path d="M47.8501 0.171138C52.906 -0.124439 59.6806 0.0493742 64.8654 0.0641769C53.9802 19.4519 42.4925 38.8397 31.3809 58.1334C41.5744 58.037 51.7697 58.0341 61.9627 58.1243C63.7912 60.4517 67.7825 67.515 69.759 70.6112L43.2048 70.5854C36.8727 70.6293 30.5402 70.6083 24.2082 70.5224C22.2593 74.4804 19.2181 79.5439 17.0082 83.4843L0 83.3984L30.586 29.8425C35.5159 21.2211 42.4882 7.95022 47.8501 0.171138Z" fill="white"/>
<path d="M67.2143 1.89684C68.618 2.77068 111.385 78.884 115.868 86.7624C113.295 90.4784 109.185 95.327 106.287 98.9565C100.944 88.9871 94.6422 78.5082 88.9657 68.6558C82.3295 55.9569 73.4399 42.0576 66.3693 29.2375C61.8338 36.0086 55.4793 47.9343 51.0966 55.3348C46.16 55.3228 41.2225 55.3558 36.2855 55.4331L67.2143 1.89684Z" fill="white"/>
<path d="M66.0924 35.3453C68.3697 37.3207 99.7411 93.2918 103.451 99.8762C98.3995 99.9951 93.3532 100.028 88.3021 99.9764C85.9579 96.6635 81.5561 88.9852 79.7037 85.3962C75.6599 85.7868 67.3671 85.5094 63.0178 85.4917C53.9134 85.4306 44.2895 85.8245 35.2524 85.4822L27.7721 73.3902C31.0324 73.736 39.5802 73.5325 43.1069 73.5302C53.7463 73.4767 64.388 73.4891 75.025 73.5674C70.604 67.5565 63.1801 54.4461 59.0266 47.5528C61.2752 43.4228 63.6336 39.3521 66.0924 35.3453Z" fill="white"/>
<path d="M0 86.2815C5.05447 86.5174 11.4906 86.3135 16.6462 86.2968C18.819 89.2946 22.265 95.8632 24.201 99.3161C19.1317 99.6408 12.634 99.4651 7.46019 99.466L0 86.2815Z" fill="white"/>
<path d="M25.1434 75.0367C26.0854 75.9382 31.7013 85.2539 32.7583 86.9691C31.1346 90.3571 28.7952 94.4393 26.9853 97.8081C24.5891 94.3658 21.5103 88.6796 19.3275 84.9197C20.998 81.7848 23.2987 78.1357 25.1434 75.0367Z" fill="white"/>
</g>
</svg>
